<?xml version="1.0" encoding="utf-8"?>
<!-- Generator: Adobe Illustrator 19.2.1, SVG Export Plug-In . SVG Version: 6.00 Build 0)  -->
<svg version="1.1" id="Layer_1" xmlns="http://www.w3.org/2000/svg" xmlns:xlink="http://www.w3.org/1999/xlink" x="0px" y="0px"
	 width="64px" height="64px" viewBox="0 0 64 64" enable-background="new 0 0 64 64" xml:space="preserve">
<g id="Icons_3_">
	<g>
		<path d="M64,38.57c0-0.58,0-1.17-0.04-1.75c-0.08-1.33-0.25-2.65-0.53-3.96c-0.38-1.74-0.94-3.42-1.79-4.99
			c-1.51-2.8-3.67-4.9-6.59-6.2c-1.67-0.74-3.42-1.14-5.24-1.29c-1.67-0.13-3.33-0.08-4.97,0.25c-2.5,0.51-4.69,1.62-6.52,3.42
			c-0.86,0.84-1.59,1.77-2.26,2.76c-0.05,0.07-0.07,0.16-0.2,0.21c0-1.92,0-3.82,0-5.72c-4.58,0-9.14,0-13.72,0c0,0.1,0,0.18,0,0.26
			c0.01,0.44,0.03,0.88,0.03,1.32c0.02,2.4,0.04,4.8,0.04,7.2c0,3.85-0.01,7.7-0.01,11.54c0,2.48-0.01,4.97-0.01,7.45
			c-0.01,2.61-0.02,5.21-0.03,7.82c-0.01,1.89-0.01,3.78-0.02,5.67c4.58,0,9.16,0,13.74,0c0-0.11-0.01-0.22-0.01-0.32
			c0-7.65,0-15.29,0-22.94c0-0.77,0.05-1.53,0.2-2.28c0.11-0.54,0.31-1.03,0.55-1.52c0.65-1.29,1.53-2.38,2.74-3.18
			c1.09-0.72,2.29-1.09,3.59-1.15c0.81-0.03,1.61,0.02,2.4,0.23c1.57,0.41,2.75,1.34,3.57,2.73c0.53,0.9,0.84,1.88,1.05,2.9
			c0.22,1.07,0.31,2.16,0.31,3.25c0,7.4,0,14.79,0,22.19c0,0.03,0,0.07-0.01,0.1c4.56,0,9.13,0,13.69,0
			c0.01-0.11,0.02-0.23,0.02-0.35C64,54.35,64,46.46,64,38.57z"/>
		<path d="M14.55,21.32c-4.57,0-9.13,0-13.7,0c0,0.13,0,0.25,0,0.36c0,13.52,0,27.04,0,40.55c0,0.12,0,0.23,0,0.35
			c4.56,0,9.13,0,13.69,0c0.01-0.12,0.03-0.25,0.03-0.37c0-13.51,0-27.02,0-40.53c0-0.08,0-0.17,0-0.25
			C14.57,21.4,14.56,21.36,14.55,21.32z"/>
		<path d="M12.93,3.08c-1.09-0.89-2.35-1.37-3.72-1.57c-0.22-0.03-0.44-0.07-0.66-0.1c-0.5,0-1,0-1.5,0
			c-0.22,0.03-0.44,0.07-0.66,0.1c-1.6,0.24-3.04,0.83-4.24,1.96c-1.08,1.02-1.73,2.26-2,3.71C0.1,7.42,0.05,7.66,0,7.91
			c0,0.43,0,0.87,0,1.3c0.05,0.22,0.1,0.43,0.14,0.65c0.41,2.21,1.6,3.86,3.58,4.92c1.04,0.56,2.15,0.82,3.32,0.89
			c1.27,0.07,2.51-0.05,3.71-0.48c1.8-0.64,3.17-1.77,4.01-3.5c0.69-1.42,0.86-2.92,0.57-4.48C15.03,5.56,14.26,4.16,12.93,3.08z"/>
	</g>
</g>
</svg>
