<?xml version="1.0" encoding="utf-8"?>
<!-- Generator: Adobe Illustrator 19.2.1, SVG Export Plug-In . SVG Version: 6.00 Build 0)  -->
<svg version="1.1" id="Layer_1" xmlns="http://www.w3.org/2000/svg" xmlns:xlink="http://www.w3.org/1999/xlink" x="0px" y="0px"
	 width="64px" height="64px" viewBox="0 0 64 64" enable-background="new 0 0 64 64" xml:space="preserve">
<path d="M32,0C14.33,0,0,14.33,0,32s14.33,32,32,32s32-14.33,32-32S49.67,0,32,0z M24.36,46.18c0,0.07-0.01,0.13-0.01,0.19
	c-2.39,0-4.79,0-7.18,0c0-0.06,0-0.12,0-0.18c0-7.09,0-14.17,0-21.26c0-0.06,0-0.12,0-0.19c2.4,0,4.79,0,7.18,0
	c0,0.02,0.01,0.04,0.01,0.06c0,0.04,0,0.09,0,0.13C24.37,32.02,24.37,39.1,24.36,46.18z M24.47,19.7c-0.44,0.91-1.16,1.5-2.1,1.84
	c-0.63,0.22-1.28,0.29-1.95,0.25c-0.61-0.04-1.2-0.18-1.74-0.47c-1.04-0.56-1.66-1.42-1.88-2.58c-0.02-0.12-0.05-0.23-0.07-0.34
	c0-0.23,0-0.45,0-0.68c0.03-0.13,0.06-0.25,0.08-0.38c0.14-0.76,0.48-1.41,1.05-1.95c0.62-0.59,1.38-0.9,2.22-1.03
	c0.12-0.02,0.23-0.03,0.35-0.05c0.26,0,0.52,0,0.79,0c0.12,0.02,0.23,0.04,0.35,0.05c0.72,0.11,1.38,0.36,1.95,0.82
	c0.69,0.57,1.1,1.3,1.26,2.17C24.92,18.16,24.83,18.95,24.47,19.7z M50.27,46.38c-2.39,0-4.79,0-7.18,0c0-0.02,0-0.03,0-0.05
	c0-3.88,0-7.76,0-11.63c0-0.57-0.05-1.14-0.16-1.7c-0.11-0.53-0.28-1.05-0.55-1.52c-0.43-0.73-1.05-1.22-1.87-1.43
	c-0.41-0.11-0.83-0.14-1.26-0.12c-0.68,0.03-1.31,0.23-1.88,0.6c-0.63,0.42-1.1,0.99-1.43,1.67c-0.13,0.25-0.23,0.52-0.29,0.8
	c-0.08,0.4-0.1,0.8-0.1,1.2c0,4.01,0,8.02,0,12.03c0,0.06,0,0.11,0,0.17c-2.4,0-4.81,0-7.21,0c0-0.99,0-1.98,0.01-2.97
	c0.01-1.37,0.01-2.73,0.02-4.1c0-1.3,0-2.6,0.01-3.9c0-2.02,0.01-4.03,0.01-6.05c0-1.26-0.01-2.52-0.02-3.77
	c0-0.23-0.01-0.46-0.02-0.69c0-0.04,0-0.09,0-0.14c2.4,0,4.79,0,7.19,0c0,1,0,1.99,0,3c0.07-0.02,0.08-0.07,0.1-0.11
	c0.35-0.52,0.73-1.01,1.18-1.45c0.96-0.94,2.1-1.53,3.42-1.79c0.86-0.17,1.73-0.2,2.61-0.13c0.95,0.07,1.87,0.29,2.74,0.67
	c1.53,0.68,2.66,1.78,3.45,3.25c0.44,0.82,0.74,1.7,0.94,2.62c0.15,0.68,0.24,1.38,0.28,2.07c0.02,0.3,0.02,0.61,0.02,0.92
	c0,4.14,0,8.27,0,12.41C50.28,46.26,50.27,46.32,50.27,46.38z"/>
</svg>
