<?xml version="1.0" encoding="utf-8"?>
<!-- Generator: Adobe Illustrator 19.2.1, SVG Export Plug-In . SVG Version: 6.00 Build 0)  -->
<svg version="1.1" id="Layer_1" xmlns="http://www.w3.org/2000/svg" xmlns:xlink="http://www.w3.org/1999/xlink" x="0px" y="0px"
	 width="64px" height="64px" viewBox="0 0 64 64" enable-background="new 0 0 64 64" xml:space="preserve">
<path d="M1.44,54.15c-1.5,1.5-2.05,3.4-0.55,4.9l3.82,3.82c1.5,1.5,3.95,1.5,5.45,0l15.39-15.4c3.71,2.17,8.01,3.42,12.62,3.42
	C52,50.89,64,38.9,64,25.06C64,11.22,52.78,0,38.94,0C25.1,0,13.11,11.99,13.11,25.83c0,4.76,1.33,9.22,3.64,13L1.44,54.15
	L1.44,54.15z M38.17,43.18c-9.58,0-17.35-7.77-17.35-17.35c0-9.59,8.54-18.12,18.12-18.12c9.58,0,17.35,7.76,17.35,17.35
	C56.29,34.64,47.75,43.18,38.17,43.18z"/>
</svg>
