<?xml version="1.0" encoding="utf-8"?>
<!-- Generator: Adobe Illustrator 19.2.1, SVG Export Plug-In . SVG Version: 6.00 Build 0)  -->
<svg version="1.1" id="Layer_1" xmlns="http://www.w3.org/2000/svg" xmlns:xlink="http://www.w3.org/1999/xlink" x="0px" y="0px"
	 width="64px" height="64px" viewBox="0 0 64 64" enable-background="new 0 0 64 64" xml:space="preserve">
<g id="Icons">
	<path d="M64,12.15c-2.35,1.04-4.89,1.75-7.54,2.07c2.71-1.63,4.79-4.2,5.78-7.26c-2.54,1.5-5.35,2.6-8.34,3.19
		c-2.4-2.55-5.81-4.15-9.58-4.15c-7.25,0-13.13,5.88-13.13,13.13c0,1.03,0.12,2.03,0.34,2.99C20.61,21.57,10.93,16.34,4.46,8.4
		c-1.13,1.94-1.78,4.19-1.78,6.6c0,4.56,2.32,8.57,5.84,10.93c-2.15-0.07-4.18-0.66-5.95-1.64c0,0.05,0,0.11,0,0.16
		c0,6.36,4.53,11.67,10.53,12.88c-1.1,0.3-2.26,0.46-3.46,0.46c-0.85,0-1.67-0.08-2.47-0.23c1.67,5.22,6.52,9.01,12.27,9.12
		c-4.49,3.52-10.16,5.62-16.31,5.62c-1.06,0-2.11-0.06-3.13-0.19c5.81,3.73,12.71,5.9,20.13,5.9c24.15,0,37.36-20.01,37.36-37.36
		c0-0.57-0.01-1.14-0.04-1.7C60.01,17.09,62.24,14.78,64,12.15z"/>
</g>
</svg>
