<?xml version="1.0" encoding="utf-8"?>
<!-- Generator: Adobe Illustrator 19.2.1, SVG Export Plug-In . SVG Version: 6.00 Build 0)  -->
<svg version="1.1" id="Layer_1" xmlns="http://www.w3.org/2000/svg" xmlns:xlink="http://www.w3.org/1999/xlink" x="0px" y="0px"
	 width="64px" height="64px" viewBox="0 0 64 64" enable-background="new 0 0 64 64" xml:space="preserve">
<path d="M32,0C14.33,0,0,14.33,0,32s14.33,32,32,32s32-14.33,32-32S49.67,0,32,0z M47.2,26.5c0.01,0.31,0.02,0.62,0.02,0.93
	c0,9.51-7.24,20.48-20.47,20.48c-4.06,0-7.85-1.19-11.03-3.23c0.56,0.07,1.14,0.1,1.72,0.1c3.37,0,6.47-1.15,8.94-3.08
	c-3.15-0.06-5.81-2.14-6.72-5c0.44,0.08,0.89,0.13,1.35,0.13c0.66,0,1.29-0.09,1.9-0.25c-3.29-0.66-5.77-3.57-5.77-7.06
	c0-0.03,0-0.06,0-0.09c0.97,0.54,2.08,0.86,3.26,0.9c-1.93-1.29-3.2-3.49-3.2-5.99c0-1.32,0.36-2.55,0.98-3.62
	c3.55,4.35,8.85,7.22,14.83,7.52c-0.12-0.52-0.19-1.07-0.19-1.64c0-3.98,3.22-7.2,7.2-7.2c2.07,0,3.94,0.87,5.25,2.27
	c1.64-0.32,3.18-0.92,4.57-1.75c-0.54,1.68-1.68,3.09-3.17,3.98c1.46-0.17,2.84-0.56,4.13-1.13C49.83,24.22,48.61,25.49,47.2,26.5z"
	/>
</svg>
