<svg xmlns="http://www.w3.org/2000/svg" width="64" height="64" viewBox="0 0 64 64"><path d="M32 0C14.33 0 0 14.33 0 32s14.33 32 32 32 32-14.33 32-32S49.67 0 32 0zm-7.64 46.18c0 .07-.01.13-.01.19h-7.18v-.18-21.26-.19h7.18c0 .02.01.04.01.06v.13c.01 7.09.01 14.17 0 21.25zm.11-26.48c-.44.91-1.16 1.5-2.1 1.84-.63.22-1.28.29-1.95.25-.61-.04-1.2-.18-1.74-.47-1.04-.56-1.66-1.42-1.88-2.58-.02-.12-.05-.23-.07-.34v-.68c.03-.13.06-.25.08-.38.14-.76.48-1.41 1.05-1.95.62-.59 1.38-.9 2.22-1.03.12-.02.23-.03.35-.05h.79c.12.02.23.04.35.05.72.11 1.38.36 1.95.82.69.57 1.1 1.3 1.26 2.17.14.81.05 1.6-.31 2.35zm25.8 26.68h-7.18v-.05V34.7c0-.57-.05-1.14-.16-1.7a5.13 5.13 0 0 0-.55-1.52c-.43-.73-1.05-1.22-1.87-1.43-.41-.11-.83-.14-1.26-.12a3.7 3.7 0 0 0-1.88.6c-.63.42-1.1.99-1.43 1.67-.13.25-.23.52-.29.8-.08.4-.1.8-.1 1.2v12.2h-7.21c0-.99 0-1.98.01-2.97.01-1.37.01-2.73.02-4.1 0-1.3 0-2.6.01-3.9 0-2.02.01-4.03.01-6.05 0-1.26-.01-2.52-.02-3.77 0-.23-.01-.46-.02-.69v-.14h7.19v3c.07-.02.08-.07.1-.11.35-.52.73-1.01 1.18-1.45a6.6 6.6 0 0 1 3.42-1.79c.86-.17 1.73-.2 2.61-.13.95.07 1.87.29 2.74.67 1.53.68 2.66 1.78 3.45 3.25.44.82.74 1.7.94 2.62.15.68.24 1.38.28 2.07.02.3.02.61.02.92v12.41c0 .02-.01.08-.01.14z"/></svg>