<svg xmlns="http://www.w3.org/2000/svg" width="64" height="64" viewBox="0 0 64 64"><path d="M64 38.57c0-.58 0-1.17-.04-1.75-.08-1.33-.25-2.65-.53-3.96-.38-1.74-.94-3.42-1.79-4.99-1.51-2.8-3.67-4.9-6.59-6.2-1.67-.74-3.42-1.14-5.24-1.29-1.67-.13-3.33-.08-4.97.25-2.5.51-4.69 1.62-6.52 3.42-.86.84-1.59 1.77-2.26 2.76-.05.07-.07.16-.2.21V21.3H22.14v.26c.01.44.03.88.03 1.32.02 2.4.04 4.8.04 7.2 0 3.85-.01 7.7-.01 11.54 0 2.48-.01 4.97-.01 7.45l-.03 7.82c-.01 1.89-.01 3.78-.02 5.67h13.74c0-.11-.01-.22-.01-.32V39.3c0-.77.05-1.53.2-2.28.11-.54.31-1.03.55-1.52.65-1.29 1.53-2.38 2.74-3.18 1.09-.72 2.29-1.09 3.59-1.15.81-.03 1.61.02 2.4.23 1.57.41 2.75 1.34 3.57 2.73.53.9.84 1.88 1.05 2.9.22 1.07.31 2.16.31 3.25v22.19c0 .03 0 .07-.01.1h13.69c.01-.11.02-.23.02-.35.02-7.87.02-15.76.02-23.65zM14.55 21.32H.85v41.26h13.69c.01-.12.03-.25.03-.37V21.68v-.25c0-.03-.01-.07-.02-.11zM12.93 3.08c-1.09-.89-2.35-1.37-3.72-1.57-.22-.03-.44-.07-.66-.1h-1.5c-.22.03-.44.07-.66.1-1.6.24-3.04.83-4.24 1.96C1.07 4.49.42 5.73.15 7.18c-.05.24-.1.48-.15.73v1.3c.05.22.1.43.14.65.41 2.21 1.6 3.86 3.58 4.92 1.04.56 2.15.82 3.32.89 1.27.07 2.51-.05 3.71-.48 1.8-.64 3.17-1.77 4.01-3.5.69-1.42.86-2.92.57-4.48-.3-1.65-1.07-3.05-2.4-4.13z"/></svg>