<svg xmlns="http://www.w3.org/2000/svg" width="64" height="64" viewBox="0 0 64 64"><path d="M32 0C14.33 0 0 14.33 0 32s14.33 32 32 32 32-14.33 32-32S49.67 0 32 0zm15.2 26.5c.01.31.02.62.02.93 0 9.51-7.24 20.48-20.47 20.48-4.06 0-7.85-1.19-11.03-3.23.56.07 1.14.1 1.72.1 3.37 0 6.47-1.15 8.94-3.08a7.197 7.197 0 0 1-6.72-5c.44.08.89.13 1.35.13.66 0 1.29-.09 1.9-.25a7.2 7.2 0 0 1-5.77-7.06v-.09c.97.54 2.08.86 3.26.9a7.19 7.19 0 0 1-3.2-5.99c0-1.32.36-2.55.98-3.62 3.55 4.35 8.85 7.22 14.83 7.52a7.195 7.195 0 0 1 7.01-8.84c2.07 0 3.94.87 5.25 2.27 1.64-.32 3.18-.92 4.57-1.75a7.218 7.218 0 0 1-3.17 3.98c1.46-.17 2.84-.56 4.13-1.13-.97 1.45-2.19 2.72-3.6 3.73z"/></svg>