<svg xmlns="http://www.w3.org/2000/svg" width="64" height="64" viewBox="0 0 64 64"><path d="M64 12.15a26.481 26.481 0 0 1-7.54 2.07c2.71-1.63 4.79-4.2 5.78-7.26-2.54 1.5-5.35 2.6-8.34 3.19C51.5 7.6 48.09 6 44.32 6c-7.25 0-13.13 5.88-13.13 13.13 0 1.03.12 2.03.34 2.99-10.92-.55-20.6-5.78-27.07-13.72A13.06 13.06 0 0 0 2.68 15c0 4.56 2.32 8.57 5.84 10.93a13.16 13.16 0 0 1-5.95-1.64v.16c0 6.36 4.53 11.67 10.53 12.88-1.1.3-2.26.46-3.46.46-.85 0-1.67-.08-2.47-.23 1.67 5.22 6.52 9.01 12.27 9.12A26.359 26.359 0 0 1 3.13 52.3c-1.06 0-2.11-.06-3.13-.19a37.12 37.12 0 0 0 20.13 5.9c24.15 0 37.36-20.01 37.36-37.36 0-.57-.01-1.14-.04-1.7 2.56-1.86 4.79-4.17 6.55-6.8z"/></svg>